<?xml version="1.0" encoding="utf-8"?>
<!-- Generator: Adobe Illustrator 16.0.0, SVG Export Plug-In . SVG Version: 6.00 Build 0)  -->
<!DOCTYPE svg PUBLIC "-//W3C//DTD SVG 1.1//EN" "http://www.w3.org/Graphics/SVG/1.1/DTD/svg11.dtd">
<svg version="1.1" id="Layer_1" xmlns="http://www.w3.org/2000/svg" xmlns:xlink="http://www.w3.org/1999/xlink" x="0px" y="0px"
	 width="212.336px" height="192.43px" viewBox="0 0 212.336 192.43" enable-background="new 0 0 212.336 192.43"
	 xml:space="preserve">
<g>
	<defs>
		<rect id="SVGID_1_" x="7.1" y="0" width="203.069" height="190.162"/>
	</defs>
	<clipPath id="SVGID_2_">
		<use xlink:href="#SVGID_1_"  overflow="visible"/>
	</clipPath>
	<path clip-path="url(#SVGID_2_)" fill="#562106" d="M99.94,160.273c0-1.155-0.962-2.09-2.146-2.09c-1.186,0-2.143,0.935-2.143,2.09
		c0,1.154,0.957,2.089,2.143,2.089C98.979,162.362,99.94,161.427,99.94,160.273 M117.772,160.273c0-1.155-0.96-2.09-2.146-2.09
		c-1.184,0-2.144,0.935-2.144,2.09c0,1.154,0.96,2.089,2.144,2.089C116.812,162.362,117.772,161.427,117.772,160.273
		 M39.267,155.335c0-6.119,5.092-11.079,11.38-11.079c6.284,0,11.377,4.96,11.377,11.079c0,6.118-5.093,11.078-11.377,11.078
		C44.359,166.413,39.267,161.453,39.267,155.335 M29.045,155.335c0,11.615,9.672,21.028,21.602,21.028s21.601-9.413,21.601-21.028
		s-9.672-21.032-21.601-21.032S29.045,143.719,29.045,155.335 M174.155,155.335c0,6.118-5.096,11.078-11.381,11.078
		c-6.284,0-11.379-4.96-11.379-11.078c0-6.119,5.095-11.079,11.379-11.079C169.059,144.256,174.155,149.216,174.155,155.335
		 M184.377,155.335c0-11.615-9.67-21.032-21.604-21.032c-11.928,0-21.599,9.417-21.599,21.032s9.671,21.028,21.599,21.028
		C174.708,176.363,184.377,166.95,184.377,155.335 M187.195,155.335c0,13.13-10.932,23.776-24.421,23.776
		c-13.487,0-24.42-10.646-24.42-23.776c0-13.132,10.933-23.777,24.42-23.777C176.263,131.557,187.195,142.203,187.195,155.335
		 M181.732,120.507h-3.687v-4.187h-8.598v4.187h-3.714v-4.187h-14.93v4.187h-3.714v-4.187H134.57v4.187H31.69V95.546h150.042
		V120.507z M26.225,155.335c0-13.132,10.935-23.777,24.422-23.777c13.485,0,24.418,10.646,24.418,23.777
		c0,13.13-10.933,23.776-24.418,23.776C37.16,179.111,26.225,168.465,26.225,155.335 M84.354,138.548h44.713v4.854H84.354V138.548z
		 M84.354,148.425h44.713v23.695H84.354V148.425z M195.794,120.507h-9.422V95.546V90.69h-4.641H31.69h-4.639v4.856v24.961h-9.427
		v69.655h178.169V120.507z"/>
	<path clip-path="url(#SVGID_2_)" fill="#562106" d="M182.448,53.92h13.935V12.616h13.786V0.624h-41.504v11.992h13.783V53.92z
		 M144.163,54.701c13.78,0,19.754-7.05,19.754-16.846c0-7.527-3.523-12.623-13.934-16.15l-6.895-2.35
		c-2.525-0.862-3.674-1.882-3.674-3.919c0-2.117,1.682-3.68,5.052-3.68c4.136,0,6.433,1.563,8.579,3.838l7.962-8.544
		C157.943,3.366,152.887,0,143.705,0c-9.266,0-17.769,5.406-17.769,15.908c0,8.776,5.361,13.479,12.942,16.068l6.128,2.114
		c3.445,1.177,5.127,2.272,5.127,4.543c0,2.981-2.447,4.236-6.583,4.236c-5.209,0-8.346-2.585-10.875-5.798l-10.106,7.759
		C125.786,49.217,132.444,54.701,144.163,54.701 M90.562,42.241c-8.73,0-13.707-6.586-13.707-14.969
		c0-8.387,4.976-14.892,13.707-14.892c8.729,0,13.705,6.504,13.705,14.892C104.267,35.656,99.291,42.241,90.562,42.241
		 M90.562,54.626c15.007,0,27.95-11.286,27.95-27.354C118.512,11.207,105.569,0,90.562,0c-15.009,0-27.95,11.208-27.95,27.272
		C62.612,43.34,75.553,54.626,90.562,54.626 M39.106,25h-18.07V0.624H7.1V53.92h13.937V36.989h18.07V53.92h13.935V0.624H39.106V25z"
		/>
</g>
</svg>
