<?xml version="1.0" encoding="utf-8"?>
<!-- Generator: Adobe Illustrator 16.0.0, SVG Export Plug-In . SVG Version: 6.00 Build 0)  -->
<!DOCTYPE svg PUBLIC "-//W3C//DTD SVG 1.1//EN" "http://www.w3.org/Graphics/SVG/1.1/DTD/svg11.dtd">
<svg version="1.1" id="Layer_1" xmlns="http://www.w3.org/2000/svg" xmlns:xlink="http://www.w3.org/1999/xlink" x="0px" y="0px"
	 width="353.852px" height="196.43px" viewBox="0 0 353.852 196.43" enable-background="new 0 0 353.852 196.43"
	 xml:space="preserve">
<g enable-background="new    ">
	<path fill="#562106" d="M0.166,1.403h14.11c10.515,0,18.456,7.084,18.456,18.672s-7.94,18.671-18.456,18.671H0.166V1.403z
		 M13.202,30.289c5.901,0,9.55-4.009,9.55-10.214S19.104,9.86,13.202,9.86H9.93v20.429H13.202z"/>
</g>
<g enable-background="new    ">
	<path fill="#562106" d="M38.363,1.403h9.764v37.343h-9.764V1.403z"/>
</g>
<g enable-background="new    ">
	<path fill="#562106" d="M53.867,32.376l7.082-5.437c1.771,2.251,3.97,4.064,7.618,4.064c2.897,0,4.614-0.879,4.614-2.965
		c0-1.593-1.181-2.362-3.595-3.186l-4.292-1.482c-5.312-1.812-9.067-5.107-9.067-11.258c0-7.359,5.955-11.148,12.447-11.148
		c6.438,0,9.979,2.361,12.125,4.942l-5.58,5.986c-1.502-1.593-3.112-2.691-6.009-2.691c-2.361,0-3.541,1.098-3.541,2.581
		c0,1.428,0.805,2.142,2.575,2.746l4.829,1.647c7.296,2.471,9.764,6.041,9.764,11.313c0,6.864-4.185,11.807-13.842,11.807
		C60.788,39.295,56.121,35.451,53.867,32.376z"/>
</g>
<g enable-background="new    ">
	<path fill="#7E3923" d="M95.823,9.805h-9.657V1.403h29.078v8.402h-9.657v28.941h-9.764V9.805z"/>
</g>
<g enable-background="new    ">
	<path fill="#7E3923" d="M150.866,38.746h-10.569l-5.097-8.567h-3.648v8.567h-9.764V1.403h13.841
		c9.818,0,15.344,6.371,15.344,14.663c0,5.382-2.307,9.666-6.599,12.082L150.866,38.746z M135.146,22.216
		c4.399,0,6.009-2.526,6.009-6.151s-1.609-6.206-6.009-6.206h-3.594v12.356H135.146z"/>
</g>
<g enable-background="new    ">
	<path fill="#982900" d="M157.894,1.403h9.764v37.343h-9.764V1.403z"/>
</g>
<g enable-background="new    ">
	<path fill="#982900" d="M177.422,1.403h14.915c7.243,0,11.964,3.405,11.964,9.116c0,4.174-1.824,6.096-4.185,7.249
		c3.97,1.153,7.351,4.064,7.351,9.775c0,7.139-5.42,11.203-14.486,11.203h-15.558V1.403z M191.586,15.187
		c2.146,0,3.111-1.098,3.111-2.855s-0.858-3.021-3.004-3.021h-4.828v5.876H191.586z M192.766,30.838
		c3.756,0,4.936-1.647,4.936-4.229s-1.233-4.173-4.936-4.173h-5.9v8.402H192.766z"/>
</g>
<g enable-background="new    ">
	<path fill="#B7431F" d="M214.493,24.303v-22.9h9.765v22.791c0,4.229,1.931,6.645,6.062,6.645c4.131,0,6.062-2.416,6.062-6.645
		V1.403h9.765v22.9c0,10.049-6.707,14.992-15.826,14.992C221.199,39.295,214.493,34.352,214.493,24.303z"/>
</g>
<g enable-background="new    ">
	<path fill="#B7431F" d="M261.973,9.805h-9.658V1.403h29.078v8.402h-9.656v28.941h-9.764V9.805z"/>
</g>
<g enable-background="new    ">
	<path fill="#E56B0E" d="M287.941,1.403h25.59v8.402h-15.826v8.677h13.198v7.963h-13.198v3.899h16.578v8.402h-26.342V1.403z"/>
</g>
<g enable-background="new    ">
	<path fill="#E56B0E" d="M321.149,1.403h14.11c10.516,0,18.455,7.084,18.455,18.672s-7.939,18.671-18.455,18.671h-14.11V1.403z
		 M334.187,30.289c5.901,0,9.55-4.009,9.55-10.214s-3.648-10.215-9.55-10.215h-3.272v20.429H334.187z"/>
</g>
<g enable-background="new    ">
	<path fill="#562106" d="M92.873,60.297h14.11c10.515,0,18.456,7.084,18.456,18.672s-7.94,18.671-18.456,18.671h-14.11V60.297z
		 M105.909,89.183c5.901,0,9.55-4.009,9.55-10.214s-3.648-10.215-9.55-10.215h-3.272v20.429H105.909z"/>
</g>
<g enable-background="new    ">
	<path fill="#7E3923" d="M132.142,60.297h9.764V97.64h-9.764V60.297z"/>
</g>
<g enable-background="new    ">
	<path fill="#982900" d="M148.721,91.27l7.082-5.437c1.771,2.251,3.97,4.064,7.618,4.064c2.897,0,4.614-0.879,4.614-2.965
		c0-1.593-1.18-2.362-3.594-3.186l-4.292-1.482c-5.312-1.812-9.067-5.107-9.067-11.258c0-7.359,5.955-11.148,12.447-11.148
		c6.438,0,9.979,2.361,12.125,4.942l-5.58,5.986c-1.502-1.593-3.112-2.691-6.009-2.691c-2.361,0-3.541,1.098-3.541,2.581
		c0,1.428,0.805,2.142,2.575,2.746l4.829,1.647c7.296,2.471,9.764,6.041,9.764,11.313c0,6.864-4.185,11.807-13.842,11.807
		C155.641,98.19,150.974,94.345,148.721,91.27z"/>
</g>
<g enable-background="new    ">
	<path fill="#B7431F" d="M201.512,98.135c-10.247,0-18.992-7.908-18.992-19.166s8.691-19.111,18.456-19.111
		c7.886,0,12.715,3.405,15.772,8.018l-7.35,5.107c-1.395-2.197-3.648-4.448-8.262-4.448c-5.365,0-8.638,4.558-8.638,10.434
		c0,5.876,3.38,10.489,8.96,10.489c4.721,0,7.027-2.197,8.584-5.162l7.51,4.942C213.959,95.444,208.916,98.135,201.512,98.135z"/>
</g>
<g enable-background="new    ">
	<path fill="#E56B0E" d="M221.684,78.969c0-11.258,9.067-19.111,19.582-19.111c10.516,0,19.583,7.853,19.583,19.111
		s-9.067,19.166-19.583,19.166C230.751,98.135,221.684,90.227,221.684,78.969z M250.869,78.969c0-5.876-3.486-10.434-9.604-10.434
		c-6.115,0-9.603,4.558-9.603,10.434c0,5.876,3.487,10.489,9.603,10.489C247.383,89.458,250.869,84.845,250.869,78.969z"/>
</g>
<g>
	<path fill="#F0D947" d="M153.415,179.899c13.964,0,25.283-11.319,25.283-25.283s-11.319-25.281-25.283-25.281
		s-25.283,11.317-25.283,25.281S139.451,179.899,153.415,179.899"/>
	<path fill="#F0D947" d="M208.588,179.899c13.963,0,25.283-11.319,25.283-25.283s-11.32-25.281-25.283-25.281
		c-13.965,0-25.281,11.317-25.281,25.281S194.623,179.899,208.588,179.899"/>
	<path fill="#562106" d="M155.128,157.254c0-1.926-1.627-3.483-3.636-3.483c-2.008,0-3.637,1.559-3.637,3.483
		s1.629,3.482,3.637,3.482C153.501,160.736,155.128,159.18,155.128,157.254 M170.09,157.254c0,9.84-8.327,17.815-18.598,17.815
		s-18.599-7.977-18.599-17.815s8.327-17.814,18.599-17.814C161.763,139.438,170.09,147.414,170.09,157.254 M189.666,157.254
		c0-21.084-17.09-38.174-38.174-38.174c-21.083,0-38.175,17.09-38.175,38.174c0,21.085,17.092,38.176,38.175,38.176
		C172.576,195.429,189.666,178.339,189.666,157.254"/>
	<path fill="#E56B0E" d="M212.225,157.254c0-1.926-1.627-3.483-3.635-3.483s-3.639,1.559-3.639,3.483s1.631,3.482,3.639,3.482
		S212.225,159.18,212.225,157.254 M227.188,157.254c0,9.84-8.324,17.815-18.598,17.815s-18.601-7.977-18.601-17.815
		s8.327-17.814,18.601-17.814C218.861,139.438,227.188,147.414,227.188,157.254 M246.764,157.254
		c0-21.084-17.09-38.174-38.174-38.174c-21.085,0-38.175,17.09-38.175,38.174c0,21.085,17.09,38.176,38.175,38.176
		C229.674,195.429,246.764,178.339,246.764,157.254"/>
	<path fill="#B7431F" d="M180.039,182.537c5.971-6.737,9.627-15.573,9.627-25.283s-3.656-18.547-9.627-25.282
		c-5.968,6.735-9.624,15.572-9.624,25.282S174.071,175.8,180.039,182.537"/>
	<path fill="#F5F6EC" d="M151.492,160.912c2.109,0,3.818-1.638,3.818-3.658c0-2.02-1.709-3.656-3.818-3.656
		c-2.111,0-3.816,1.638-3.816,3.656C147.676,159.274,149.381,160.912,151.492,160.912"/>
	<path fill="#F5F6EC" d="M208.588,160.912c2.109,0,3.82-1.638,3.82-3.658c0-2.02-1.711-3.656-3.82-3.656s-3.816,1.638-3.816,3.656
		C204.771,159.274,206.479,160.912,208.588,160.912"/>
</g>
</svg>
